<?xml version="1.0" standalone="no"?>
<!DOCTYPE svg PUBLIC "-//W3C//DTD SVG 20010904//EN"
 "http://www.w3.org/TR/2001/REC-SVG-20010904/DTD/svg10.dtd">
<svg version="1.0" xmlns="http://www.w3.org/2000/svg"
 width="1024.000000pt" height="1024.000000pt" viewBox="0 0 1024.000000 1024.000000"
 preserveAspectRatio="xMidYMid meet">

<g transform="translate(0.000000,1024.000000) scale(0.100000,-0.100000)"
fill="#000000" stroke="none">
<path d="M4838 10050 c-1163 -73 -2207 -518 -3072 -1308 -419 -383 -801 -893
-1065 -1420 -588 -1175 -679 -2565 -250 -3807 431 -1248 1336 -2266 2524
-2841 988 -478 2109 -611 3188 -379 1079 232 2049 822 2762 1680 569 685 951
1543 1079 2425 64 435 67 931 10 1368 -181 1390 -963 2654 -2129 3441 -693
468 -1467 746 -2298 826 -199 19 -569 26 -749 15z m667 -1476 c1156 -122 2195
-845 2721 -1896 396 -790 476 -1686 227 -2543 -124 -429 -352 -858 -650 -1224
-113 -139 -360 -384 -498 -494 -349 -280 -796 -515 -1204 -632 -1109 -318
-2266 -87 -3166 632 -141 112 -406 377 -519 518 -208 260 -407 602 -529 910
-162 407 -240 822 -240 1275 0 407 61 772 190 1145 122 350 338 738 579 1040
113 141 378 406 519 519 241 193 564 385 849 506 348 147 778 243 1181 264
117 6 392 -4 540 -20z"/>
<path d="M3352 6887 l-522 -522 625 -625 625 -625 -620 -620 -620 -620 523
-523 522 -522 615 615 c338 338 619 615 625 615 5 0 288 -278 627 -617 l618
-618 522 523 523 522 -618 618 c-339 339 -617 622 -617 627 0 5 279 289 620
630 l620 620 -523 523 -522 522 -625 -625 -625 -625 -625 625 -625 625 -523
-523z"/>
</g>
</svg>
