<?xml version="1.0" standalone="no"?>
<!DOCTYPE svg PUBLIC "-//W3C//DTD SVG 20010904//EN"
 "http://www.w3.org/TR/2001/REC-SVG-20010904/DTD/svg10.dtd">
<svg version="1.0" xmlns="http://www.w3.org/2000/svg"
 width="300.000000pt" height="176.000000pt" viewBox="0 0 300.000000 176.000000"
 preserveAspectRatio="xMidYMid meet">
<metadata>
Created by potrace 1.10, written by Peter Selinger 2001-2011
</metadata>
<g transform="translate(0.000000,176.000000) scale(0.100000,-0.100000)"
fill="#000000" stroke="none">
<path d="M1507 1543 c-4 -3 -7 -36 -7 -71 0 -61 -1 -64 -17 -50 -31 27 -63 31
-108 13 -35 -13 -48 -25 -64 -59 -26 -53 -26 -67 0 -117 32 -64 105 -86 174
-53 54 25 65 62 65 213 0 120 -1 131 -18 131 -10 0 -22 -3 -25 -7z m-29 -178
c28 -32 28 -65 1 -99 -42 -54 -129 -21 -129 48 1 77 78 107 128 51z"/>
<path d="M1612 1538 c-31 -31 10 -75 43 -48 21 17 19 37 -4 50 -24 13 -24 13
-39 -2z"/>
<path d="M220 1508 c-50 -35 -71 -69 -76 -129 -13 -135 117 -226 255 -178 35
12 37 17 18 43 -11 15 -17 16 -35 7 -33 -17 -91 -13 -128 10 -70 43 -67 158 5
206 42 28 65 29 116 3 39 -20 54 -15 55 17 0 46 -151 61 -210 21z"/>
<path d="M492 1438 c-13 -6 -21 -19 -20 -27 3 -13 15 -15 64 -13 47 3 65 0 78
-13 27 -27 15 -36 -49 -39 -33 -1 -70 -9 -82 -16 -46 -29 -37 -107 14 -129 17
-7 63 -11 108 -9 l79 3 -3 90 c-3 94 -14 125 -52 146 -31 16 -110 20 -137 7z
m136 -170 l3 -38 -45 0 c-60 0 -76 8 -76 36 0 30 26 44 75 41 38 -2 40 -3 43
-39z"/>
<path d="M830 1442 c-14 -2 -39 -14 -55 -27 -29 -22 -30 -26 -33 -125 l-4
-102 28 4 c27 3 28 4 25 69 -3 91 5 116 41 128 62 22 88 -15 88 -123 0 -74 1
-76 25 -76 25 0 25 0 25 94 0 84 -3 98 -22 121 -24 27 -74 43 -118 37z"/>
<path d="M1058 1439 c-10 -5 -18 -18 -18 -29 0 -16 6 -18 60 -13 63 6 90 -5
90 -36 0 -13 -11 -16 -58 -16 -80 -1 -112 -22 -112 -74 0 -62 24 -76 134 -76
l91 0 3 70 c4 96 -13 145 -58 167 -39 20 -105 23 -132 7z m133 -134 c3 -2 3
-20 1 -40 -4 -34 -5 -35 -51 -35 -26 0 -52 5 -59 12 -19 19 -14 48 11 58 23 9
91 13 98 5z"/>
<path d="M1750 1438 c-14 -8 -25 -20 -25 -28 0 -12 12 -14 57 -12 61 4 101
-10 96 -34 -2 -11 -19 -16 -65 -18 -77 -3 -103 -22 -103 -76 0 -61 25 -75 134
-75 l91 0 -3 85 c-3 111 -7 124 -37 144 -35 23 -114 30 -145 14z m130 -168 l0
-40 -44 0 c-60 0 -76 8 -76 36 0 29 26 42 83 43 37 1 37 1 37 -39z"/>
<path d="M2065 1434 c-22 -7 -41 -14 -43 -14 -14 -1 -32 -83 -32 -150 l0 -80
30 0 30 0 0 83 c0 96 12 120 58 120 54 0 62 -15 62 -114 l0 -89 30 0 30 0 0
83 c0 89 -11 120 -50 148 -37 25 -70 29 -115 13z"/>
<path d="M1617 1432 c-3 -4 -7 -60 -8 -123 l-2 -114 27 -3 27 -3 -3 123 c-3
105 -5 123 -20 126 -9 2 -19 -1 -21 -6z"/>
<path d="M469 885 c-1 -91 -2 -170 -3 -176 -1 -7 11 -13 27 -15 l27 -3 0 80
c0 71 3 82 25 104 29 30 58 32 85 5 17 -17 20 -33 20 -104 0 -82 0 -83 25 -83
25 0 25 0 25 99 0 94 -1 100 -26 123 -32 29 -97 34 -132 9 l-22 -15 0 70 c0
69 -1 71 -25 71 l-25 0 -1 -165z"/>
<path d="M1474 1036 c-3 -8 -4 -73 -2 -145 l3 -131 31 -31 c63 -62 169 -44
208 35 39 79 -15 176 -97 176 -39 0 -76 -14 -89 -34 -4 -6 -8 24 -8 67 0 71
-2 77 -20 77 -11 0 -23 -6 -26 -14z m179 -163 c24 -23 23 -87 -3 -113 -30 -30
-83 -27 -109 6 -29 37 -26 70 9 106 25 24 36 29 58 23 15 -3 35 -14 45 -22z"/>
<path d="M2693 1026 l-28 -24 -3 -156 -3 -155 27 2 27 2 -2 98 -2 97 51 0 c48
0 51 2 48 23 -3 19 -10 22 -50 25 -52 3 -58 13 -32 50 16 24 44 28 75 12 15
-9 21 -7 26 6 17 45 -87 61 -134 20z"/>
<path d="M224 1011 c-47 -29 -75 -74 -81 -134 -12 -127 91 -210 229 -183 52
10 62 20 49 45 -10 17 -16 19 -31 11 -31 -17 -102 -12 -137 10 -64 38 -67 152
-6 199 32 26 108 28 142 5 19 -14 25 -14 32 -3 26 42 -13 69 -101 69 -46 0
-74 -6 -96 -19z"/>
<path d="M803 943 c-26 -5 -47 -28 -39 -42 4 -5 30 -7 61 -4 45 5 59 2 75 -12
34 -31 24 -40 -47 -41 -59 -1 -70 -5 -90 -28 -29 -34 -29 -58 1 -93 23 -26 30
-28 115 -31 l91 -4 0 92 c0 93 -14 142 -43 153 -23 9 -100 15 -124 10z m117
-173 l0 -40 -49 0 c-47 0 -81 17 -81 40 0 19 46 40 87 40 l43 0 0 -40z"/>
<path d="M2135 944 c-6 -1 -22 -5 -37 -8 -42 -9 -58 -51 -58 -151 l0 -85 30 0
30 0 0 84 c0 103 12 121 72 111 37 -7 39 -6 36 16 -2 17 -12 25 -33 29 -17 4
-35 5 -40 4z"/>
<path d="M1056 909 c-24 -28 -26 -38 -26 -125 l0 -94 31 0 30 0 -2 85 c-2 97
7 115 57 115 45 0 54 -20 54 -119 l0 -80 27 2 28 2 -3 80 c-3 85 0 95 35 114
26 13 67 1 77 -24 3 -9 6 -52 6 -95 0 -77 0 -78 26 -76 l26 1 -4 103 c-3 95
-5 105 -27 123 -33 27 -110 26 -139 -2 l-22 -20 -27 20 c-18 15 -40 21 -73 21
-42 0 -52 -4 -74 -31z"/>
<path d="M1818 917 c-36 -30 -48 -58 -48 -109 0 -50 19 -82 60 -103 33 -17 97
-20 135 -5 22 8 24 13 15 30 -9 16 -15 18 -30 10 -30 -16 -75 -12 -104 11 -39
30 -32 39 29 39 95 0 142 43 114 103 -23 51 -123 65 -171 24z m122 -36 c16
-31 -12 -51 -71 -51 -56 0 -64 15 -27 50 29 26 84 27 98 1z"/>
<path d="M2408 922 c-32 -19 -58 -68 -58 -109 0 -65 66 -123 141 -123 81 0
143 87 117 165 -25 75 -131 111 -200 67z m132 -59 c41 -52 6 -123 -60 -123
-23 0 -43 7 -53 18 -49 54 -18 132 53 132 30 0 43 -6 60 -27z"/>
<path d="M219 507 c-41 -27 -79 -98 -79 -147 1 -49 32 -113 68 -139 40 -28
118 -37 177 -21 50 14 49 13 35 41 -9 15 -15 17 -30 9 -10 -5 -41 -10 -68 -10
-61 0 -97 25 -113 81 -33 110 71 196 173 143 32 -16 47 -9 48 23 0 44 -153 59
-211 20z"/>
<path d="M840 439 c-52 -11 -70 -40 -70 -114 0 -34 -3 -77 -6 -94 -6 -29 -5
-31 25 -31 l31 0 0 84 c0 76 2 86 22 100 59 41 88 7 88 -102 l0 -82 30 0 30 0
0 80 c0 67 3 83 20 100 24 24 53 26 74 4 18 -18 18 -15 16 -111 l-1 -73 30 0
31 0 0 95 c0 88 -2 98 -25 120 -35 36 -114 38 -150 4 -19 -17 -23 -17 -36 -4
-22 22 -69 33 -109 24z"/>
<path d="M1284 438 c-56 -14 -69 -39 -72 -144 l-4 -94 31 0 31 0 0 90 c0 88 1
91 26 102 21 10 31 9 52 -3 26 -14 27 -19 30 -102 l3 -87 31 0 31 0 -5 68 c-6
80 2 108 36 123 20 10 30 9 51 -5 23 -15 25 -21 25 -101 l0 -85 31 0 31 0 -4
95 c-3 104 -15 127 -74 144 -33 9 -106 -9 -112 -29 -2 -6 -15 -2 -30 9 -34 23
-69 29 -108 19z"/>
<path d="M1984 440 c-12 -5 -31 -21 -43 -36 -19 -24 -21 -38 -19 -118 l3 -91
28 -2 27 -2 0 88 c0 102 8 115 69 109 31 -3 41 0 44 14 3 9 -1 22 -7 27 -17
14 -77 20 -102 11z"/>
<path d="M2189 436 c-41 -14 -79 -68 -79 -113 0 -90 60 -141 153 -130 58 7 61
9 52 35 -5 18 -12 20 -59 15 -49 -5 -54 -4 -75 23 -26 32 -24 86 4 113 15 16
75 19 111 7 24 -8 38 12 24 34 -12 19 -92 28 -131 16z"/>
<path d="M518 424 c-36 -19 -58 -63 -58 -115 0 -33 6 -47 33 -74 39 -39 72
-50 123 -41 83 16 129 109 89 182 -31 58 -125 82 -187 48z m130 -61 c44 -49 9
-123 -58 -123 -85 0 -107 118 -27 150 30 12 58 3 85 -27z"/>
<path d="M1694 407 c-44 -40 -55 -96 -29 -150 23 -49 72 -71 138 -63 59 6 76
18 58 40 -10 12 -18 13 -33 5 -26 -14 -85 -5 -109 17 -30 27 -23 34 36 34 111
0 163 66 99 125 -21 20 -38 25 -76 25 -41 0 -54 -5 -84 -33z m120 -13 c21 -8
20 -41 -1 -53 -27 -14 -106 -18 -110 -5 -2 6 6 23 17 37 21 27 58 35 94 21z"/>
<path d="M2399 417 c-87 -59 -59 -203 44 -222 38 -7 92 -1 115 13 19 12 4 45
-17 36 -36 -16 -82 -16 -106 0 -44 29 -32 43 39 48 90 5 124 40 100 103 -18
46 -120 59 -175 22z m121 -36 c14 -27 -12 -51 -55 -51 -18 0 -40 -3 -49 -6
-24 -9 -20 25 6 53 28 29 83 32 98 4z"/>
</g>
</svg>
